<?xml version="1.0" encoding="UTF-8"?>
<svg version="1.1" xmlns="http://www.w3.org/2000/svg" width="1000" height="1000">
<path d="M0 0 C0.97163086 0.17692383 1.94326172 0.35384766 2.94433594 0.53613281 C46.97886729 8.70530732 88.14303182 24.95377007 128 45 C129.52028809 45.75531006 129.52028809 45.75531006 131.07128906 46.52587891 C153.13482552 57.51362279 174.18069695 70.34300296 194 85 C195.03157227 85.75772705 195.03157227 85.75772705 196.08398438 86.53076172 C204.58595995 92.78578661 212.92942345 99.19294108 221 106 C221.53834473 106.45342773 222.07668945 106.90685547 222.63134766 107.37402344 C235.19797757 117.98143532 247.16877735 129.07902044 258.8125 140.6875 C259.31272675 141.18504791 259.81295349 141.68259583 260.32833862 142.19522095 C266.10565698 147.94907594 271.7276342 153.7761254 277 160 C277.87698825 161.0096499 278.75455392 162.01879867 279.6328125 163.02734375 C286.5466292 171.1006877 293.0655877 179.43170332 299.44628906 187.93164062 C300.4292359 189.24017701 301.41518747 190.54646635 302.40527344 191.84960938 C359.45189101 266.93945954 394.58886143 359.97935024 382.03515625 455.15234375 C371.68684744 526.00794382 342.15850835 595.50018286 298 652 C297.07618038 653.20002646 296.15299619 654.40054238 295.23046875 655.6015625 C278.79942067 676.88097232 260.56099604 697.61359222 240 715 C238.56720703 716.26650391 238.56720703 716.26650391 237.10546875 717.55859375 C213.13402685 738.67201281 186.1020365 756.8564071 158 772 C157.03416992 772.52400391 156.06833984 773.04800781 155.07324219 773.58789062 C82.52688966 812.75316452 -2.9733871 838.34806309 -86 827 C-86.92538574 826.87641113 -87.85077148 826.75282227 -88.80419922 826.62548828 C-123.1061073 821.87811801 -155.98143631 811.28057844 -187 796 C-187.91652344 795.54866699 -188.83304688 795.09733398 -189.77734375 794.63232422 C-218.92318358 780.12735551 -245.39466833 761.22619945 -270 740 C-271.10988281 739.04287109 -271.10988281 739.04287109 -272.2421875 738.06640625 C-274.17164998 736.38878124 -276.08610893 734.69536165 -278 733 C-278.68739258 732.39671875 -279.37478516 731.7934375 -280.08300781 731.171875 C-286.88567174 725.13785739 -293.36769324 718.8185019 -299.7956543 712.38964844 C-301.55824523 710.62924948 -303.32871039 708.87703618 -305.09960938 707.125 C-311.86824077 700.38944203 -318.0673888 693.49119837 -324 686 C-324.93446034 684.89790112 -325.87582832 683.80156777 -326.828125 682.71484375 C-334.50513566 673.91104604 -341.30907915 664.5673915 -348 655 C-348.66298096 654.06099854 -348.66298096 654.06099854 -349.33935547 653.10302734 C-387.86638251 598.29866986 -408.29948352 531.74527187 -410 465 C-410.02191406 464.23075195 -410.04382813 463.46150391 -410.06640625 462.66894531 C-412.1005751 380.04778738 -389.73102908 295.72059084 -290 129 C-289.56929199 128.484375 -289.13858398 127.96875 -288.69482422 127.4375 C-277.34856147 113.88113394 -265.20448241 101.12430732 -252.75576782 88.58053589 C-251.76982726 87.58656249 -250.78537225 86.59111282 -249.80258179 85.59402466 C-243.94593089 79.66104673 -237.93326586 74.14230668 -231.42041016 68.93676758 C-229.49857537 67.39895082 -227.62722565 65.83793358 -225.78515625 64.20703125 C-210.59407302 50.84672419 -193.51267866 40.03770841 -176 30 C-175.03731201 29.44022461 -175.03731201 29.44022461 -174.05517578 28.86914062 C-149.24976877 14.53324262 -121.09078952 5.22562285 -93 0 C-92.11231934 -0.16516113 -91.22463867 -0.33032227 -90.31005859 -0.50048828 C-61.40743133 -5.54631615 -28.80195116 -5.41279853 0 0 Z " fill="#54F9FF" transform="translate(510,98)"/>
</svg>
